<?xml version="1.0" encoding="UTF-8"?>
<svg id="Layer_1" data-name="Layer 1" xmlns="http://www.w3.org/2000/svg" viewBox="0 0 595.28 190">
  <defs>
    <style>
      .cls-1 {
        fill: #6942db;
      }

      .cls-2 {
        fill: #0e2350;
      }
    </style>
  </defs>
  <path class="cls-1" d="M94.99,37.42l96.5-.12c7.3.79,14.63,9.32,14.82,16.62-1.67,29.08,2.16,60.55,0,89.35-.95,12.62-11.52,22.57-23.95,23.9-28.57-1.49-59.18,2-87.51.03-10.65-.74-19.23-9.64-19.36-20.32-.38-30.53.49-61.41.59-91.92,2.36-8.98,9.85-15.73,18.91-17.54ZM97.27,51.09c-3.73.6-6.76,3.03-7.18,6.94l-.02,88.43c.18,3.01,1.96,5.91,4.78,7.07l84.8.45c6.9-.73,12.7-6.4,12.99-13.44l-.23-85.48c-.67-1.76-1.8-3.03-3.55-3.74l-91.59-.23Z"/>
  <path class="cls-2" d="M287.42,60.08v15.49h-33.72v22.79h31.67c.14,0,.35-.58.68-.46v15.95h-32.36v34.63h-16.86V60.08h50.58Z"/>
  <path class="cls-2" d="M485.11,84.37c43.64-3.21,47.1,62.03,5.33,65.48-44.33,3.66-47.89-62.35-5.33-65.48ZM486.47,98.49c-20.56,1.47-20.23,34.85-1.5,36.78,25.98,2.67,24.87-38.45,1.5-36.78Z"/>
  <path class="cls-2" d="M387.22,148.49h-15.95v-38.96c0-11.73-18.28-16.35-24.35-5.67-.29.51-1.62,3.59-1.62,3.84v40.79h-16.41v-62.89h16.41v4.56c12.16-9.77,31.92-9.12,39.28,6.07.66,1.36,2.65,6.62,2.65,7.83v44.43Z"/>
  <path class="cls-2" d="M448.74,85.6v10.71l-29.17,38.05h30.08c-1.15,4.63.23,9.43,0,14.13h-51.5v-11.17l29.62-38.5c-4.63.6-11.38-.82-15.74-.02-1.19.22-.74,1.29-1.79,1.42-1.87.22-9.24.27-10.95-.04-.51-.09-.85-.23-1.14-.68v-13.9h50.58Z"/>
  <rect class="cls-2" x="299.26" y="84.69" width="16.41" height="63.8"/>
  <path class="cls-2" d="M306.9,58.38c12.71-.47,14.4,18.62,1.71,19.93-14.76,1.53-15-19.44-1.71-19.93Z"/>
  <path class="cls-1" d="M163.74,80.88c2.97-3.01,6.23-8.69,11.13-7.36,3.74,1.02,6.26,9.1,3.56,12.24l-42.35,42.87c-2.64,2.05-4.73,2.22-7.47.27-3.67-2.61-18.98-18.09-21.89-21.86-4.55-5.92,2.87-14.68,9.82-9.36,2.43,1.86,14.18,15.27,15.26,15.27,10.69-10.64,21.35-21.33,31.95-32.06Z"/>
</svg>